<svg xmlns="http://www.w3.org/2000/svg" viewBox="0 0 400 400" width="400" height="400">
  <!-- 脖子 -->
  <path d="M160 320 L160 380 L240 380 L240 320" fill="#e8c4a0"/>

  <!-- 衣服 - 白色polo衫 -->
  <path d="M100 380 Q120 340 160 330 L160 380 Z" fill="#ffffff"/>
  <path d="M300 380 Q280 340 240 330 L240 380 Z" fill="#ffffff"/>
  <path d="M160 330 Q200 350 240 330 L240 380 L160 380 Z" fill="#ffffff"/>

  <!-- polo衫领子 -->
  <path d="M160 330 Q175 345 200 340 Q225 345 240 330 Q225 360 200 355 Q175 360 160 330" fill="#f5f5f5" stroke="#ddd" stroke-width="1"/>
  <path d="M175 335 L190 360 L200 350 L210 360 L225 335" fill="none" stroke="#e0e0e0" stroke-width="2"/>

  <!-- polo衫logo (小马) -->
  <g transform="translate(255, 355) scale(0.15)">
    <path d="M0 0 Q10 -30 25 -35 Q30 -40 35 -35 L40 -20 Q45 -15 50 -20 L55 -40 Q60 -45 65 -40 Q80 -20 75 0 Q70 20 60 30 L50 50 L45 30 Q40 35 35 30 L30 50 L25 30 Q15 20 10 10 Z" fill="#1a3a6e"/>
  </g>

  <!-- 头部 -->
  <ellipse cx="200" cy="200" rx="120" ry="140" fill="#e8c4a0"/>

  <!-- 耳朵 -->
  <ellipse cx="80" cy="210" rx="20" ry="30" fill="#e8c4a0"/>
  <ellipse cx="320" cy="210" rx="20" ry="30" fill="#e8c4a0"/>
  <ellipse cx="80" cy="210" rx="12" ry="20" fill="#d4a574"/>
  <ellipse cx="320" cy="210" rx="12" ry="20" fill="#d4a574"/>

  <!-- 光头 - 头顶高光 -->
  <ellipse cx="200" cy="100" rx="90" ry="50" fill="#f0d0b0"/>
  <ellipse cx="180" cy="85" rx="40" ry="25" fill="#f5dcc5" opacity="0.6"/>

  <!-- 眉毛 -->
  <path d="M120 175 Q145 165 170 175" stroke="#4a3728" stroke-width="4" fill="none" stroke-linecap="round"/>
  <path d="M230 175 Q255 165 280 175" stroke="#4a3728" stroke-width="4" fill="none" stroke-linecap="round"/>

  <!-- 眼镜框 -->
  <rect x="115" y="185" width="70" height="45" rx="8" fill="none" stroke="#3a3a3a" stroke-width="4"/>
  <rect x="215" y="185" width="70" height="45" rx="8" fill="none" stroke="#3a3a3a" stroke-width="4"/>
  <!-- 眼镜桥 -->
  <path d="M185 207 Q200 200 215 207" stroke="#3a3a3a" stroke-width="3" fill="none"/>
  <!-- 眼镜腿 -->
  <path d="M115 200 L85 195" stroke="#3a3a3a" stroke-width="3"/>
  <path d="M285 200 L315 195" stroke="#3a3a3a" stroke-width="3"/>

  <!-- 眼睛 -->
  <ellipse cx="150" cy="210" rx="15" ry="12" fill="#2a2a2a"/>
  <ellipse cx="250" cy="210" rx="15" ry="12" fill="#2a2a2a"/>
  <circle cx="145" cy="206" r="4" fill="#ffffff"/>
  <circle cx="245" cy="206" r="4" fill="#ffffff"/>

  <!-- 鼻子 -->
  <path d="M200 220 Q210 250 200 270 Q190 265 195 250" fill="#d4a574" opacity="0.5"/>

  <!-- 笑容 - 大笑 -->
  <path d="M140 280 Q170 330 200 330 Q230 330 260 280" fill="#ffffff" stroke="#c4846a" stroke-width="3"/>
  <!-- 上牙 -->
  <path d="M145 285 L255 285 Q230 310 200 310 Q170 310 145 285" fill="#ffffff"/>
  <!-- 牙齿分隔线 -->
  <line x1="175" y1="285" x2="175" y2="305" stroke="#e8e8e8" stroke-width="1"/>
  <line x1="200" y1="285" x2="200" y2="310" stroke="#e8e8e8" stroke-width="1"/>
  <line x1="225" y1="285" x2="225" y2="305" stroke="#e8e8e8" stroke-width="1"/>
  <!-- 嘴唇 -->
  <path d="M140 280 Q170 275 200 278 Q230 275 260 280" fill="none" stroke="#c4846a" stroke-width="2"/>

  <!-- 笑纹 -->
  <path d="M130 260 Q125 275 130 290" stroke="#d4a574" stroke-width="2" fill="none" opacity="0.5"/>
  <path d="M270 260 Q275 275 270 290" stroke="#d4a574" stroke-width="2" fill="none" opacity="0.5"/>
</svg>
